<svg xmlns="http://www.w3.org/2000/svg" width="100%" height="100%" viewBox="0 0 419.371 175.637">
  <g id="Group_8449" data-name="Group 8449" transform="translate(-1014.128 -242.441)">
    <path id="Path_6755" data-name="Path 6755" d="M1232.153,414.855a8.035,8.035,0,0,1-7.942-7.942.4.4,0,0,0-.794,0,8.033,8.033,0,0,1-7.942,7.942.4.4,0,0,0,0,.794,8.032,8.032,0,0,1,7.942,7.942h0a.4.4,0,0,0,.794,0h0a8.039,8.039,0,0,1,7.942-7.949.391.391,0,0,0,.4-.39A.4.4,0,0,0,1232.153,414.855Z" transform="translate(0 -50)" fill="none" stroke="#fff" stroke-miterlimit="10" stroke-width="1.818"/>
    <g id="Group_8427" data-name="Group 8427" transform="translate(0 -50)">
      <g id="Group_8426" data-name="Group 8426">
        <path id="Path_6756" data-name="Path 6756" d="M1237.19,318.342a101.338,101.338,0,0,0-13.232-.915v0h-.288v0a101.312,101.312,0,0,0-13.231.915c-19.333,2.978-19.561,25.924-19.561,42.486V399.69c0,16.562.228,39.508,19.561,42.486a101.489,101.489,0,0,0,13.231.915v0h.288v0a101.515,101.515,0,0,0,13.232-.915c19.332-2.978,19.56-24.668,19.56-42.486V360.828C1256.75,343.009,1256.522,321.32,1237.19,318.342Z" fill="none" stroke="#fff" stroke-miterlimit="10" stroke-width="1.818"/>
      </g>
      <line id="Line_1" data-name="Line 1" y2="49.927" transform="translate(1223.958 317.424)" fill="none" stroke="#fff" stroke-miterlimit="10" stroke-width="1.818"/>
      <line id="Line_2" data-name="Line 2" x2="65.598" transform="translate(1191.152 367.351)" fill="none" stroke="#fff" stroke-miterlimit="10" stroke-width="1.818"/>
    </g>
    <line id="Line_3" data-name="Line 3" x1="51.99" transform="translate(1150.85 330.259)" fill="none" stroke="#fff" stroke-miterlimit="10" stroke-width="1.818"/>
    <line id="Line_4" data-name="Line 4" x1="47.534" transform="translate(1133.024 339.352)" fill="none" stroke="#fff" stroke-miterlimit="10" stroke-width="1.818"/>
    <line id="Line_5" data-name="Line 5" x1="18.486" transform="translate(1162.073 350.492)" fill="none" stroke="#fff" stroke-miterlimit="10" stroke-width="1.818"/>
    <line id="Line_6" data-name="Line 6" x2="51.99" transform="translate(1241.632 384.105)" fill="none" stroke="#fff" stroke-miterlimit="10" stroke-width="1.818"/>
    <line id="Line_7" data-name="Line 7" x2="47.534" transform="translate(1263.914 375.012)" fill="none" stroke="#fff" stroke-miterlimit="10" stroke-width="1.818"/>
    <line id="Line_8" data-name="Line 8" x2="18.486" transform="translate(1263.914 363.871)" fill="none" stroke="#fff" stroke-miterlimit="10" stroke-width="1.818"/>
  </g>
</svg>
