<svg xmlns="http://www.w3.org/2000/svg" width="360.3" height="70.22" viewBox='0 0 472.284 92.094'><g fill="#fff"><path d="M246.205 74.026c-14.5 0-24.4-9.418-24.4-21.72s9.9-21.72 23.258-21.72c16.242 0 23.642 12.782 23.642 25.084h-34.8l-1.92 1.345c1.825 4.42 6.342 8.17 14.222 8.17 5.864 0 10.958-1.922 16.34-5.958l4.806 6.535c-7.112 5.67-14.128 8.265-21.145 8.265zm10-25.95l.866-2.018a13.51 13.51 0 0 0-12.014-6.727c-5.48 0-10.67 2.595-12.878 7.5l1.73 1.25zM150.563 57.4c0-4.037-2.882-5.67-6.823-6.632l-12.974-3.17c-9.13-2.2-15.57-5.96-15.57-14.8 0-9.42 8.84-16.243 21.72-16.243a36.32 36.32 0 0 1 22.681 8.073l-6.15 7.7a26.69 26.69 0 0 0-17.3-6.728C129.13 25.6 125 28.1 125 32.222c0 3.556 3.268 4.8 7.785 5.96l12.974 3.363c8.265 2.115 14.608 6.632 14.608 15.1 0 10.283-9.514 17.395-22.585 17.395-10 0-19.894-3.075-26.045-8.938l5.767-8.265a29.56 29.56 0 0 0 20.278 8.073c6.916 0 12.782-2.5 12.782-7.496zm41.514 16.626c-14.512 0-24.4-9.418-24.4-21.72s9.9-21.72 23.257-21.72c16.243 0 23.642 12.782 23.642 25.084h-34.8l-1.92 1.345c1.826 4.42 6.343 8.17 14.223 8.17 5.863 0 10.957-1.922 16.338-5.958l4.807 6.535c-7.112 5.67-14.13 8.265-21.145 8.265zm10-25.95l.865-2.018a13.5 13.5 0 0 0-12.014-6.727c-5.478 0-10.668 2.595-12.878 7.5l1.73 1.25zm92.567 7.306l-8.937 7.5v9.8H276V13.768h9.707V50h2.018l20.758-18.068h13.84l-19.5 16.53v1.922l19.414 22.3h-12.013zm64.22 9.226h13.263v8.073H329.07v-8.073h16.145l2.5-2.5V42.502l-2.5-2.5H329.07V31.93h27.294v30.178zm56.75-35.27c-3.17-5.575-7.112-8.073-12.687-8.073-7.208 0-10.57 3.748-11.244 10.668h20.086v8.072h-17.875l-2.4 2.4v30.274h-9.8v-30.27l-2.4-2.4h-9.6v-8.072h12.1c.866-12.3 9.8-19.5 21.143-19.5 8.842 0 15.57 4.132 19.5 10.956zm3.238 2.595h11.05l14.32 28.928h2.884l14.32-28.928h10.86l-21.528 41.9c-5.094 9.9-9.8 18.26-19.7 18.26-5.67 0-11.15-2.306-14.416-8.65l7.6-5.575c2.116 3.94 3.94 5.286 6.92 5.286 4.23 0 6.632-2.595 9.6-8.265z"/><circle cx="44.908" cy="44.908" r="44.908"/></g><path d="M79.2 43.274c-18.035 0-32.66-15.2-32.66-32.66 0-.902-.73-1.633-1.633-1.633-.433 0-.848.172-1.155.478s-.478.722-.478 1.155c0 17.458-14.62 32.66-32.66 32.66-.902 0-1.633.73-1.633 1.633s.73 1.633 1.633 1.634c18.04 0 32.66 15.2 32.66 32.66 0 .433.172.848.478 1.155s.722.478 1.155.478c.902 0 1.633-.73 1.633-1.633 0-17.465 14.625-32.69 32.66-32.69a1.61 1.61 0 0 0 1.633-1.6c.001-.434-.17-.85-.477-1.158s-.723-.48-1.156-.48z" fill="#501da0"/></svg>